<svg width="92" height="92" viewBox="0 0 92 92" fill="none" xmlns="http://www.w3.org/2000/svg">
<circle cx="46" cy="46" r="46" fill="#E6F5FC"/>
<path d="M39.875 26.1094C39.875 24.9448 40.8154 24 41.9844 24H49.0156C50.1846 24 51.125 24.9448 51.125 26.1094C51.125 27.2739 50.1846 28.2188 49.0156 28.2188H47.6094V31.1736C50.3076 31.541 52.7773 32.6027 54.8428 34.1689L56.9346 32.0815L55.9414 31.0875C55.1152 30.2631 55.1152 28.928 55.9414 28.1045C56.7676 27.2801 58.1035 27.2801 58.9209 28.1045L63.8955 33.0791C64.7217 33.8965 64.7217 35.2324 63.8955 36.0586C63.0693 36.8848 61.7334 36.8848 60.916 36.0586L59.9141 35.0654L57.8311 37.1572C59.3955 39.2227 60.459 41.6924 60.8281 44.3906H63.7812V42.9844C63.7812 41.8154 64.7217 40.875 65.8906 40.875C67.0596 40.875 68 41.8154 68 42.9844V50.0156C68 51.1846 67.0596 52.125 65.8906 52.125C64.7217 52.125 63.7812 51.1846 63.7812 50.0156V48.6094H60.8281C60.459 51.3076 59.3955 53.7773 57.8311 55.8428L59.9141 57.9346L60.916 56.9414C61.7334 56.1152 63.0693 56.1152 63.8955 56.9414C64.7217 57.7676 64.7217 59.1035 63.8955 59.9209L58.9209 64.8955C58.1035 65.7217 56.7676 65.7217 55.9414 64.8955C55.1152 64.0693 55.1152 62.7334 55.9414 61.916L56.9346 60.9141L54.8428 58.8311C52.7773 60.3955 50.3076 61.459 47.6094 61.8281V64.7812H49.0156C50.1846 64.7812 51.125 65.7217 51.125 66.8906C51.125 68.0596 50.1846 69 49.0156 69H41.9844C40.8154 69 39.875 68.0596 39.875 66.8906C39.875 65.7217 40.8154 64.7812 41.9844 64.7812H43.3906V61.8281C40.6924 61.459 38.2227 60.3955 36.1572 58.8311L34.0654 60.9229L35.0586 61.916C35.8848 62.7334 35.8848 64.0693 35.0586 64.8955C34.2324 65.7217 32.8965 65.7217 32.0791 64.8955L27.1045 59.9209C26.2801 59.1035 26.2801 57.7676 27.1045 56.9414C27.928 56.1152 29.264 56.1152 30.0875 56.9414L31.0815 57.9346L33.1689 55.8428C31.6027 53.7773 30.541 51.3076 30.1736 48.6094H27.2188V50.0156C27.2188 51.1846 26.2739 52.125 25.1094 52.125C23.9448 52.125 23 51.1846 23 50.0156V42.9844C23 41.8154 23.9448 40.875 25.1094 40.875C26.2739 40.875 27.2188 41.8154 27.2188 42.9844V44.3906H30.1736C30.541 41.6924 31.6027 39.2227 33.1689 37.1572L31.0815 35.0654L30.0875 36.0586C29.2631 36.8848 27.928 36.8848 27.1045 36.0586C26.2801 35.2324 26.2801 33.8965 27.1045 33.0791L32.0791 28.1045C32.8965 27.281 34.2324 27.281 35.0586 28.1045C35.8848 28.928 35.8848 30.264 35.0586 31.0875L34.0654 32.0815L36.1572 34.1689C38.2227 32.6027 40.6924 31.541 43.3906 31.1736V28.2188H41.9844C40.8154 28.2188 39.875 27.2748 39.875 26.1094ZM39.875 39.4688C37.5459 39.4688 35.6562 41.3584 35.6562 43.6875C35.6562 46.0166 37.5459 47.9062 39.875 47.9062C42.2041 47.9062 44.0938 46.0166 44.0938 43.6875C44.0938 41.3584 42.2041 39.4688 39.875 39.4688ZM49.7188 52.8281C50.8877 52.8281 51.8281 51.8877 51.8281 50.7188C51.8281 49.5498 50.8877 48.6094 49.7188 48.6094C48.5498 48.6094 47.6094 49.5498 47.6094 50.7188C47.6094 51.8877 48.5498 52.8281 49.7188 52.8281Z" fill="#0360D9"/>
</svg>
