<svg width="92" height="92" viewBox="0 0 92 92" fill="none" xmlns="http://www.w3.org/2000/svg">
<circle cx="46" cy="46" r="46" fill="#E6F5FC"/>
<path d="M25.8361 39.9145V39.8848C25.8361 36.9444 26.6989 34.07 28.3157 31.624C29.9325 29.178 32.2309 27.2702 34.9208 26.1411C37.6108 25.012 40.5718 24.7124 43.4303 25.2799C46.2888 25.8474 48.9167 27.2567 50.9825 29.33C52.6079 28.5203 54.4234 28.1799 56.2285 28.3463C58.0336 28.5127 59.7579 29.1795 61.211 30.2731C62.6641 31.3666 63.7894 32.8443 64.4626 34.5428C65.1358 36.2414 65.3306 38.0947 65.0256 39.898C65.474 39.94 65.9091 40.0748 66.3036 40.2941C66.6981 40.5134 67.0436 40.8123 67.3185 41.1724C67.5935 41.5324 67.7919 41.9458 67.9015 42.3867C68.0111 42.8276 68.0295 43.2865 67.9555 43.7349C66.4742 52.7285 62.8102 58.421 56.9701 60.8157V63.0385C56.9701 64.3544 56.4522 65.6163 55.5303 66.5468C54.6084 67.4773 53.358 68 52.0542 68H38.9452C37.6414 68 36.391 67.4773 35.4691 66.5468C34.5472 65.6163 34.0293 64.3544 34.0293 63.0385V60.8157C28.1892 58.421 24.5252 52.7285 23.0439 43.7349C22.9724 43.2984 22.9884 42.8519 23.0909 42.4218C23.1934 41.9917 23.3804 41.5867 23.6407 41.2308C23.9011 40.8749 24.2295 40.5753 24.6066 40.3498C24.9837 40.1243 25.4018 39.9774 25.8361 39.9178V39.9145ZM29.1134 39.8848H32.3906C32.3906 37.6916 33.2538 35.5883 34.7904 34.0376C36.3269 32.4868 38.4108 31.6156 40.5838 31.6156C42.7567 31.6156 44.8407 32.4868 46.3772 34.0376C47.9137 35.5883 48.7769 37.6916 48.7769 39.8848H52.0542C52.0542 36.8144 50.8457 33.8698 48.6946 31.6987C46.5435 29.5276 43.6259 28.3079 40.5838 28.3079C37.5416 28.3079 34.6241 29.5276 32.473 31.6987C30.3219 33.8698 29.1134 36.8144 29.1134 39.8848ZM35.6679 39.8848H45.4997C45.4997 38.5689 44.9818 37.3069 44.0598 36.3764C43.1379 35.446 41.8876 34.9232 40.5838 34.9232C39.28 34.9232 38.0296 35.446 37.1077 36.3764C36.1858 37.3069 35.6679 38.5689 35.6679 39.8848ZM58.1696 39.8848H61.6795C61.9269 38.9072 61.95 37.8856 61.747 36.8978C61.5439 35.9099 61.1201 34.9818 60.5079 34.1843C59.8956 33.3868 59.1111 32.7408 58.214 32.2957C57.317 31.8505 56.3311 31.6179 55.3315 31.6156C54.5449 31.6156 53.7977 31.7545 53.1029 32.0092C53.683 32.9486 54.1615 33.9607 54.5285 35.0225C55.1527 34.8662 55.8087 34.8984 56.4149 35.115C57.0212 35.3316 57.551 35.7231 57.9388 36.241C58.3266 36.7588 58.5552 37.3801 58.5962 38.0279C58.6372 38.6757 58.4889 39.3213 58.1696 39.8848ZM53.6928 61.3847H37.3065V63.0385C37.3065 63.4771 37.4792 63.8978 37.7865 64.2079C38.0938 64.5181 38.5106 64.6923 38.9452 64.6923H52.0542C52.4888 64.6923 52.9056 64.5181 53.2129 64.2079C53.5202 63.8978 53.6928 63.4771 53.6928 63.0385V61.3847ZM36.1529 58.077H54.8464C60.0442 56.3901 63.3345 51.6204 64.7241 43.1924H26.2753C27.6648 51.6204 30.9552 56.3901 36.1529 58.077Z" fill="#0360D9"/>
</svg>
