<svg width="92" height="92" viewBox="0 0 92 92" fill="none" xmlns="http://www.w3.org/2000/svg">
<circle cx="46" cy="46" r="46" fill="#E6F5FC"/>
<path d="M43.8889 27C47.5044 27.0002 50.9962 28.3077 53.7132 30.6786C56.4303 33.0495 58.1869 36.3218 58.6554 39.8853L62.843 46.4324C63.1185 46.8634 63.0626 47.5054 62.4242 47.7792L58.7782 49.3295V54.75C58.7782 55.7313 58.3861 56.6724 57.688 57.3663C56.9899 58.0602 56.0431 58.45 55.0559 58.45H51.3354L51.3336 64H34.5831V57.1661C34.5831 54.9831 33.7717 52.9167 32.2678 51.0519C30.5142 48.8754 29.4148 46.2507 29.0963 43.4803C28.7778 40.7098 29.2532 37.9063 30.4677 35.3926C31.6822 32.879 33.5864 30.7576 35.9609 29.2727C38.3354 27.7879 41.0836 27.0001 43.8889 27ZM43.8889 30.7C41.785 30.6999 39.7239 31.2906 37.943 32.404C36.1621 33.5175 34.7338 35.1083 33.8228 36.9934C32.9117 38.8784 32.555 40.9809 32.7935 43.0587C33.0321 45.1365 33.8563 47.105 35.1713 48.7375C37.2074 51.2609 38.3055 54.1339 38.3055 57.1661V60.3H47.6113L47.615 54.75H55.0559V46.8912L57.9407 45.6628L55.0689 41.1765L54.9628 40.3588C54.6105 37.6873 53.2928 35.2343 51.2553 33.4571C49.2178 31.68 46.5996 30.7 43.8889 30.7ZM42.9025 37.6616L43.8889 38.6421L44.8753 37.6616C45.1757 37.3523 45.5351 37.1056 45.9324 36.9358C46.3298 36.7661 46.7571 36.6767 47.1896 36.6728C47.6221 36.669 48.051 36.7508 48.4513 36.9135C48.8516 37.0763 49.2153 37.3166 49.5212 37.6205C49.827 37.9244 50.0689 38.2858 50.2328 38.6837C50.3966 39.0815 50.4791 39.5078 50.4755 39.9377C50.4718 40.3676 50.382 40.7924 50.2114 41.1874C50.0408 41.5824 49.7927 41.9397 49.4817 42.2385L43.8889 47.7996L38.2961 42.2385C37.9851 41.9397 37.7371 41.5824 37.5665 41.1874C37.3958 40.7924 37.3061 40.3676 37.3024 39.9377C37.2987 39.5078 37.3812 39.0815 37.5451 38.6837C37.7089 38.2858 37.9508 37.9244 38.2567 37.6205C38.5626 37.3166 38.9263 37.0763 39.3266 36.9135C39.7269 36.7508 40.1558 36.669 40.5883 36.6728C41.0207 36.6767 41.4481 36.7661 41.8454 36.9358C42.2428 37.1056 42.6021 37.3523 42.9025 37.6616Z" fill="#0360D9"/>
</svg>
