<svg width="92" height="92" viewBox="0 0 92 92" fill="none" xmlns="http://www.w3.org/2000/svg">
<circle cx="46" cy="46" r="46" fill="#E6F5FC"/>
<path d="M46.8845 27.4096C46.8845 27.0357 46.7386 26.6772 46.479 26.4128C46.2193 26.1485 45.8672 26 45.5 26C45.1328 26 44.7807 26.1485 44.521 26.4128C44.2614 26.6772 44.1155 27.0357 44.1155 27.4096V42.1901L42.731 43.1965V36.4871C42.731 33.8089 40.5989 31.6382 37.9683 31.6382C36.5174 31.6382 35.1356 32.3994 33.9727 33.3071C32.7792 34.2431 31.6273 35.4863 30.6056 36.7718C28.5676 39.3315 26.8757 42.2578 26.2305 43.7632C25.7432 44.9049 25.1423 47.0333 24.691 49.4324C24.2341 51.8484 23.9074 54.6675 24.0237 57.2103C24.1344 59.6545 24.6688 62.2565 26.3441 63.7788C28.1993 65.4703 30.8354 65.3462 33.9339 63.7675L38.9042 61.2388C40.0541 60.6535 41.0212 59.7537 41.697 58.6404C42.3729 57.5271 42.731 56.2441 42.731 54.9353V52.7815C42.731 52.4076 42.5851 52.0491 42.3255 51.7848C42.0658 51.5204 41.7137 51.3719 41.3465 51.3719C40.9793 51.3719 40.6272 51.5204 40.3675 51.7848C40.1079 52.0491 39.962 52.4076 39.962 52.7815V54.9353C39.962 55.721 39.7469 56.4912 39.341 57.1594C38.935 57.8277 38.3542 58.3676 37.6637 58.7185L32.6962 61.2472C29.9881 62.6258 28.778 62.2142 28.1882 61.6758C27.4129 60.971 26.8951 59.4176 26.7899 57.0806C26.6874 54.8394 26.9782 52.2599 27.4101 49.9624C27.8449 47.6507 28.3987 45.7591 28.7697 44.888C29.2958 43.6532 30.8465 40.9412 32.7571 38.545C33.7041 37.3553 34.7037 36.2925 35.6618 35.5427C36.6531 34.7646 37.4311 34.4573 37.9683 34.4573C38.4971 34.4573 39.0042 34.6712 39.3781 35.0518C39.752 35.4325 39.962 35.9487 39.962 36.4871V45.2094L35.0055 48.8178C34.7275 49.0425 34.5449 49.3672 34.4954 49.725C34.4458 50.0828 34.5331 50.4463 34.7392 50.7404C34.9454 51.0346 35.2545 51.2369 35.603 51.3056C35.9514 51.3743 36.3124 51.3042 36.6115 51.1098L45.5 44.6455L54.3885 51.1098C54.5361 51.2242 54.7047 51.3072 54.8845 51.354C55.0642 51.4007 55.2513 51.4102 55.4347 51.3819C55.6182 51.3536 55.7941 51.2881 55.9522 51.1892C56.1102 51.0903 56.2471 50.9601 56.3548 50.8062C56.4624 50.6524 56.5386 50.4782 56.5788 50.2938C56.619 50.1094 56.6224 49.9187 56.5888 49.733C56.5552 49.5472 56.4853 49.3702 56.3832 49.2126C56.2811 49.0549 56.1489 48.9197 55.9945 48.815L51.038 45.2094V36.4871C51.038 35.9487 51.248 35.4325 51.6219 35.0518C51.9958 34.6712 52.5029 34.4573 53.0317 34.4573C53.5689 34.4573 54.3469 34.7674 55.3382 35.5427C56.2963 36.2925 57.2932 37.3553 58.2457 38.5478C60.1508 40.9441 61.7014 43.6532 62.2303 44.888C62.6013 45.7591 63.1551 47.6507 63.5899 49.9624C64.0218 52.2571 64.3098 54.8394 64.2101 57.0806C64.1049 59.4176 63.5899 60.971 62.8118 61.6758C62.222 62.2114 61.0119 62.6258 58.3038 61.2472L53.3335 58.7185C52.6435 58.3672 52.0633 57.8271 51.6578 57.1589C51.2524 56.4907 51.0378 55.7207 51.038 54.9353V52.7815C51.038 52.4076 50.8921 52.0491 50.6325 51.7848C50.3728 51.5204 50.0207 51.3719 49.6535 51.3719C49.2863 51.3719 48.9341 51.5204 48.6745 51.7848C48.4149 52.0491 48.269 52.4076 48.269 52.7815V54.9353C48.269 56.2441 48.6271 57.5271 49.3029 58.6404C49.9788 59.7537 50.9459 60.6535 52.0957 61.2388L57.0661 63.7675C60.1674 65.3462 62.7979 65.4674 64.6559 63.7788C66.3312 62.2565 66.8656 59.6545 66.9763 57.2103C67.0926 54.6675 66.7659 51.8484 66.3118 49.4324C65.8577 47.0305 65.2596 44.9049 64.7667 43.7604C64.1243 42.2578 62.4324 39.3315 60.3944 36.7718C59.3699 35.4863 58.2208 34.2431 57.0273 33.3071C55.8644 32.3994 54.4826 31.6382 53.0317 31.6382C50.4011 31.6382 48.269 33.8089 48.269 36.4871V43.1965L46.8845 42.1901V27.4096Z" fill="#1379B1"/>
</svg>
